<svg width="100" height="100" viewBox="0 0 100 100" fill="none" xmlns="http://www.w3.org/2000/svg">
<rect width="100" height="100" fill="#9019FF"/>
<path d="M16 63.3045C16 54.2946 23.2078 47.4406 32.1209 44.4802C27.8091 41.6807 24.4627 36.9183 24.4627 32.2203C24.4627 21.6658 33.3758 17 44.284 17C55.7391 17 62.0459 24.1114 62.0459 31.2228C62.0459 37.4332 56.4471 43.7401 49.5289 46.5396L56.7367 54.198L62.4964 47.8911C63.5905 46.8936 64.5558 46.5396 66.0038 46.5396H74.9169C77.3624 46.5396 78.0703 48.1485 76.3649 49.9505L64.2984 62.8218L66.2934 65.1708C68.5458 67.6163 70.2512 68.5817 72.1497 68.5817C73.308 68.5817 74.756 68.3243 76.751 67.1337C78.4564 66.0396 79.8079 66.2327 80.7089 67.9381L83.5083 73.0866C84.3127 74.6312 84.1518 75.8861 82.8648 76.948C79.5183 79.9084 75.4639 82 70.7017 82C65.9394 82 62.1425 80.198 58.8925 77.6881L57.348 76.2401C52.7467 80.1015 46.5364 82 39.4252 82C26.6186 82 16 74.9851 16 63.2723V63.3045Z" fill="white"/>
</svg>
