<svg width="234" height="24" viewBox="0 0 234 24" fill="none" xmlns="http://www.w3.org/2000/svg">
<g clip-path="url(#clip0_2_1042)">
<path d="M0 12.11C0 6.65 4.23 2 10.84 2C13.39 2 15.29 2.76 16.94 3.96C17.75 4.52 17.81 5.3 17.19 6.06L16.29 7.12C15.67 7.88 15 7.88 14.16 7.32C13.12 6.7 11.92 6.45 10.83 6.45C7.33 6.45 5.15 8.97 5.15 12.11C5.15 15.25 7.33 17.77 10.83 17.77C11.92 17.77 13.1 17.52 14.16 16.9C15 16.34 15.67 16.34 16.29 17.1L17.19 18.16C17.81 18.92 17.81 19.64 17.08 20.18C15.37 21.41 13.44 22.22 10.84 22.22C4.23 22.22 0 17.57 0 12.11Z" fill="#231F20"/>
<path d="M19.3501 12.11C19.3501 6.62 23.4701 2 29.8201 2C36.1701 2 40.3201 6.62 40.3201 12.11C40.3201 17.6 36.2001 22.22 29.8201 22.22C23.4401 22.22 19.3501 17.6 19.3501 12.11Z" fill="#231F20"/>
<path d="M43.79 20.4001V3.82006C43.79 2.84006 44.32 2.31006 45.3 2.31006H47.43C48.38 2.31006 48.94 2.84006 48.94 3.82006V17.5101H56.25C57.23 17.5101 57.76 18.0401 57.76 19.0201V20.3901C57.76 21.3701 57.23 21.9001 56.25 21.9001H45.3C44.32 21.9001 43.79 21.3701 43.79 20.3901V20.4001Z" fill="#231F20"/>
<path d="M58.9399 12.11C58.9399 6.62 63.0599 2 69.4099 2C75.7599 2 79.9099 6.62 79.9099 12.11C79.9099 17.6 75.7899 22.22 69.4099 22.22C63.0299 22.22 58.9399 17.6 58.9399 12.11Z" fill="#231F20"/>
<path d="M90.5401 15.1001H88.5201V20.3901C88.5201 21.3701 87.9601 21.9001 87.0101 21.9001H84.8801C83.9001 21.9001 83.3701 21.3701 83.3701 20.3901V3.82006C83.3701 2.84006 83.9001 2.31006 84.8801 2.31006H92.5501C96.9201 2.31006 99.3001 5.33006 99.3001 8.97006C99.3001 11.8801 97.7601 14.0401 95.1001 14.7901C95.3501 16.7201 96.3601 18.1801 97.7301 18.1801C98.3201 18.1801 98.6301 18.1001 98.9601 17.9801C99.8601 17.7001 100.14 17.9001 100.56 18.7601L100.9 19.4301C101.29 20.2701 101.18 21.0001 100.37 21.4201C99.3301 21.9201 98.1001 22.2001 96.7901 22.2001C91.8301 22.2001 90.7701 17.1901 90.5501 15.0901L90.5401 15.1001Z" fill="#231F20"/>
<path d="M110.02 16.39C110.02 13.59 112.26 11.46 115.03 10.54C113.69 9.67 112.65 8.19 112.65 6.73C112.65 3.45 115.42 2 118.81 2C122.37 2 124.33 4.21 124.33 6.42C124.33 8.35 122.59 10.31 120.44 11.18L122.68 13.56L124.47 11.6C124.81 11.29 125.11 11.18 125.56 11.18H128.33C129.09 11.18 129.31 11.68 128.78 12.24L125.03 16.24L125.65 16.97C126.35 17.73 126.88 18.03 127.47 18.03C127.83 18.03 128.28 17.95 128.9 17.58C129.43 17.24 129.85 17.3 130.13 17.83L131 19.43C131.25 19.91 131.2 20.3 130.8 20.63C129.76 21.55 128.5 22.2 127.02 22.2C125.54 22.2 124.36 21.64 123.35 20.86L122.87 20.41C121.44 21.61 119.51 22.2 117.3 22.2C113.32 22.2 110.02 20.02 110.02 16.38V16.39Z" fill="#231F20"/>
<path d="M140.18 12.11C140.18 6.65 144.41 2 151.02 2C153.57 2 155.47 2.76 157.12 3.96C157.93 4.52 157.99 5.3 157.37 6.06L156.47 7.12C155.85 7.88 155.18 7.88 154.34 7.32C153.3 6.7 152.1 6.45 151.01 6.45C147.51 6.45 145.33 8.97 145.33 12.11C145.33 15.25 147.51 17.77 151.01 17.77C152.1 17.77 153.28 17.52 154.34 16.9C155.18 16.34 155.85 16.34 156.47 17.1L157.37 18.16C157.99 18.92 157.99 19.64 157.26 20.18C155.55 21.41 153.62 22.22 151.02 22.22C144.41 22.22 140.18 17.57 140.18 12.11Z" fill="#231F20"/>
<path d="M168.21 15.1001H166.19V20.3901C166.19 21.3701 165.63 21.9001 164.68 21.9001H162.55C161.57 21.9001 161.04 21.3701 161.04 20.3901V3.82006C161.04 2.84006 161.57 2.31006 162.55 2.31006H170.22C174.59 2.31006 176.97 5.33006 176.97 8.97006C176.97 11.8801 175.43 14.0401 172.77 14.7901C173.02 16.7201 174.03 18.1801 175.4 18.1801C175.99 18.1801 176.3 18.1001 176.63 17.9801C177.53 17.7001 177.81 17.9001 178.23 18.7601L178.57 19.4301C178.96 20.2701 178.85 21.0001 178.04 21.4201C177 21.9201 175.77 22.2001 174.46 22.2001C169.5 22.2001 168.44 17.1901 168.22 15.0901L168.21 15.1001Z" fill="#231F20"/>
<path d="M180.73 20.1698L187.14 3.4798C187.45 2.6998 188.04 2.2998 188.9 2.2998H191.08C191.95 2.2998 192.51 2.6898 192.82 3.4798L199.37 20.1698C199.76 21.2098 199.31 21.9098 198.19 21.9098H195.92C195.08 21.9098 194.49 21.5198 194.18 20.7298L193.31 18.4298H186.59L185.75 20.6998C185.47 21.5098 184.91 21.8998 184.04 21.8998H181.88C180.76 21.8998 180.28 21.1998 180.7 20.1598L180.73 20.1698Z" fill="#231F20"/>
<path d="M215.89 3.82006V5.19006C215.89 6.17006 215.33 6.70006 214.35 6.70006H207.29V10.2001H213.25C214.23 10.2001 214.76 10.7301 214.76 11.7101V12.6301C214.76 13.6101 214.23 14.1401 213.25 14.1401H207.29V20.3801C207.29 21.3601 206.73 21.8901 205.78 21.8901H203.65C202.67 21.8901 202.14 21.3601 202.14 20.3801V3.82006C202.14 2.84006 202.67 2.31006 203.65 2.31006H214.35C215.33 2.31006 215.89 2.84006 215.89 3.82006Z" fill="#231F20"/>
<path d="M234.18 3.82006V5.19006C234.18 6.17006 233.65 6.70006 232.67 6.70006H228.55V20.3901C228.55 21.3701 228.02 21.9001 227.04 21.9001H225.02C224.04 21.9001 223.51 21.3701 223.51 20.3901V6.70006H219.51C218.53 6.70006 218 6.17006 218 5.19006V3.82006C218 2.84006 218.53 2.31006 219.51 2.31006H232.67C233.65 2.31006 234.18 2.84006 234.18 3.82006Z" fill="#231F20"/>
</g>
<defs>
<clipPath id="clip0_2_1042">
<rect width="234" height="24" fill="white"/>
</clipPath>
</defs>
</svg>
